<svg width="16" height="16" viewBox="0 0 16 16" fill="none" xmlns="http://www.w3.org/2000/svg">
    <path d="M13.0916 7.61838C13.1232 7.66057 12.9822 7.73361 12.9462 7.75565C11.6849 8.53959 10.0473 9.08173 8.74614 9.83797C7.9868 11.1338 7.44243 12.7647 6.65527 14.0209C6.63251 14.0568 6.55917 14.1972 6.51744 14.1657L4.39559 9.88708C3.09062 9.07796 1.43538 8.5547 0.150002 7.75565C0.113963 7.73298 -0.0270294 7.65994 0.00458331 7.61838L4.33679 5.47813L6.51681 1.13215C6.55917 1.10066 6.63251 1.24108 6.65464 1.27697C7.45697 2.55709 7.98301 4.20557 8.79482 5.50521L13.091 7.61838H13.0916ZM10.0568 7.61838L7.78385 6.51268C7.63021 6.36848 6.62492 4.07397 6.51681 4.15456L5.34777 6.4856L3.03877 7.61838C2.95785 7.72542 5.26178 8.72723 5.40657 8.88024L6.51681 11.1439C6.55917 11.1754 6.63251 11.035 6.65464 10.9991C6.93283 10.5552 7.48163 9.08236 7.7339 8.83112C7.98617 8.57989 9.46501 8.03333 9.91075 7.75628C9.94679 7.73361 10.0878 7.66057 10.0562 7.61901L10.0568 7.61838Z" fill="url(#paint0_linear_15648_10954)"/>
    <path d="M13.0278 10.0735C13.306 10.5356 13.6417 11.6376 13.9755 11.9952C14.2031 12.2395 15.4209 12.7156 15.8122 12.9391C15.8773 12.9762 15.9709 12.9359 15.9374 13.0638C15.9102 13.1683 14.2423 13.8213 14.0071 14.0391C13.7719 14.257 13.2838 15.4786 13.0594 15.8683C13.0221 15.9332 13.0625 16.0264 12.9342 15.993C12.8292 15.9659 12.1736 14.3048 11.9548 14.0706C11.7361 13.8364 10.5095 13.3503 10.1181 13.1267C10.053 13.0896 9.95944 13.1299 9.99295 13.0021C10.0201 12.8975 11.688 12.2446 11.9232 12.0267C12.2178 11.7541 12.6136 10.5741 12.8861 10.1541C12.926 10.093 12.8792 10.0414 13.0265 10.0735H13.0278Z" fill="url(#paint1_linear_15648_10954)"/>
    <path d="M15.9994 2.26618L14.4491 3.08224L13.6284 4.5947C13.5506 4.63248 13.0088 3.2151 12.8356 3.05516C12.5643 2.80581 11.6804 2.5319 11.3213 2.32726C11.2562 2.241 12.7256 1.60251 12.84 1.47972C13.0031 1.30531 13.5273 0 13.629 0C13.9471 0.337503 14.1443 1.22912 14.4497 1.51184C14.7551 1.79456 15.6187 2.0521 16 2.26681L15.9994 2.26618Z" fill="url(#paint2_linear_15648_10954)"/>
    <defs>
        <linearGradient id="paint0_linear_15648_10954" x1="-3.2" y1="19.5" x2="14.8636" y2="1.83779" gradientUnits="userSpaceOnUse">
            <stop stop-color="#00ADB5"/>
            <stop offset="1" stop-color="#FFD900"/>
        </linearGradient>
        <linearGradient id="paint1_linear_15648_10954" x1="-3.2" y1="19.5" x2="14.8636" y2="1.83779" gradientUnits="userSpaceOnUse">
            <stop stop-color="#00ADB5"/>
            <stop offset="1" stop-color="#FFD900"/>
        </linearGradient>
        <linearGradient id="paint2_linear_15648_10954" x1="-3.2" y1="19.5" x2="14.8636" y2="1.83779" gradientUnits="userSpaceOnUse">
            <stop stop-color="#00ADB5"/>
            <stop offset="1" stop-color="#FFD900"/>
        </linearGradient>
    </defs>
</svg>
